<?xml version="1.0" standalone="no"?>
<!DOCTYPE svg PUBLIC "-//W3C//DTD SVG 20010904//EN"
 "http://www.w3.org/TR/2001/REC-SVG-20010904/DTD/svg10.dtd">
<svg version="1.0" xmlns="http://www.w3.org/2000/svg"
 width="512.000000pt" height="512.000000pt" viewBox="0 0 512.000000 512.000000"
 preserveAspectRatio="xMidYMid meet">
<metadata>
Created by potrace 1.11, written by Peter Selinger 2001-2013
</metadata>
<g transform="translate(0.000000,512.000000) scale(0.100000,-0.100000)"
fill="#000000" stroke="none">
<path d="M2393 4330 c-144 -38 -258 -111 -365 -234 -116 -132 -213 -214 -332
-281 -58 -32 -199 -92 -235 -100 -158 -35 -211 -42 -330 -44 -147 -2 -195 -15
-234 -60 l-22 -26 -275 0 c-151 0 -294 -3 -317 -7 -104 -18 -197 -88 -250
-190 l-28 -53 1 -325 c0 -324 0 -325 28 -415 80 -266 258 -471 521 -603 132
-66 289 -110 397 -112 24 0 33 -13 92 -130 155 -310 386 -558 687 -738 170
-102 422 -196 589 -219 19 -3 53 -9 75 -13 44 -10 321 -6 370 4 17 4 64 14
105 22 99 21 255 73 360 122 382 176 694 487 870 868 38 80 41 84 72 85 18 0
41 2 50 4 9 2 34 5 55 8 21 3 76 18 123 33 376 118 641 405 705 764 9 51 14
163 14 345 0 261 -1 272 -23 328 -30 73 -65 119 -121 157 -88 60 -101 62 -430
64 l-300 1 -22 26 c-38 45 -85 57 -238 60 -207 5 -358 41 -523 126 -146 75
-245 156 -376 307 -100 114 -220 190 -358 225 -99 25 -242 26 -335 1z m-1547
-923 c3 -3 7 -237 9 -519 2 -282 6 -528 9 -546 3 -18 8 -50 11 -70 7 -49 10
-63 29 -146 9 -38 15 -70 14 -71 -2 -1 -34 4 -73 12 -198 41 -419 181 -529
337 -64 89 -103 174 -133 287 -4 13 -8 149 -10 302 -4 268 -4 279 17 322 26
54 65 83 121 93 50 9 526 8 535 -1z m4022 -21 c77 -48 81 -67 81 -357 0 -257
-6 -325 -43 -434 -24 -69 -53 -123 -107 -195 -88 -119 -183 -195 -339 -269
-99 -47 -244 -89 -254 -73 -2 4 4 44 14 88 11 44 22 102 25 130 4 27 9 60 12
74 3 14 6 255 8 537 2 281 5 515 8 520 3 4 128 7 279 7 l274 -1 42 -27z"/>
</g>
</svg>
