<svg xmlns="http://www.w3.org/2000/svg" width="140" height="85" viewBox="0 0 140 85">
  <path fill="rgb(3,3,3)" fill-rule="evenodd" d="M70.23178864 0c-2.18714905 1.79315472-4.72535706 3.33250427-6.68066407 5.25716782-6.62036133 6.5168724-10.76316833 14.60678863-11.3089447 22.3249588-.0105133.14850235-.02119446.29702759-.03189087.44556808-.14474487 2.01097489-.28971863 4.02513886.01678467 6.03587342.0221405.14517211.02410889.33707046.02627563.54875946.0059967.58514785.0135498 1.32152175.45310975 1.64030838.27902221.2022934 1.12879943.1612091 1.73640441.13183212.18017579-.00870896.33906556-.01639176.4554596-.01639176h30.32106018c.24050903 0 .49076843.00624466.74508667.01259613.72305298.01804734 1.47897339.03691483 2.137146-.08460998-.1238556-1.30490494.04718017-2.62314987.2186737-3.9448471.16262818-1.2533226.32563782-2.50975419.23799133-3.76086427-.44674682-6.37291145-3.03488159-12.7135601-7.29434204-18.50811004-1.8020935-2.45157051-3.99893188-4.82697487-6.59062194-6.98555279C73.44248199 2.07162667 71.38665009 1.11763096 70.4623642 0h-.23057556zm27.62513732 36.41729355c-2.23236084.0499115-4.49613952.1005249-6.64248657-.04921723 1.8269806-2.41296768 5.21717835-4.60520553 8.18507385-6.48143768 7.50001526-4.74139023 16.60786438-8.70176506 26.74754334-10.92173004 3.31803131-.72649765 6.66950226-1.3440342 10.1454544-1.69878578.11587525-.01182366.27606202-.03246117.46444703-.05673409.90615845-.1167488 2.4649353-.31758308 2.88586426-.02615547.4836731.33467484.3647766 1.2504158.27728271 1.92442322-.0284729.21926117-.05361938.41293907-.05361938.55271149 0 2.63794517-.959198 5.3229885-2.10864258 7.84974098-1.03875733 2.28204345-2.3357544 4.55472564-3.9717102 6.69748688-.42657471.5598526-.87042237 1.74358367-1.68899537 2.11057662-.39361572.17647172-1.36706543.12202454-2.12445068.07965851-.28082276-.01570892-.5319519-.02975464-.71279907-.02975464h-28.1305771c-1.07109069 0-2.16789245.02452088-3.27238464.04921723zm-48.2618866-.04921723c-2.2159729-2.62742996-5.77230834-5.09318542-9.17253112-7.14369583-7.33273315-4.42206955-15.9394226-7.97397232-25.52952576-10.18918419-3.33151245-.76956367-6.75341034-1.3861637-10.26073456-1.74559593-.106575-.01091957-.26261901-.03099823-.45052337-.05517387-.92502594-.11902046-2.62194824-.33735848-2.98751831-.05112076-.21331787.1670456-.18384552.46977806-.15811157.73406982.01093292.11227799.02118682.21761895.0118637.30267144-.09209442.84008026-.01631164 1.65422249.0608139 2.48272705.02116395.227314.04241944.4556961.06034089.68597793.30075073 3.86466599 2.37606811 7.7366066 4.6621399 11.30651093.57437133.89702988 1.19520568 1.80018234 1.88532256 2.66459274.2220459.27805329.44467163.7604866.88047028.93418884.46134186.18383027 1.38261413.1374817 2.12830353.09996415.2691574-.01354218.5154419-.02593232.70896148-.02593232H46.5975113c.3000412 0 .62847138.01509858.96537018.03058625.70050812.03220367 1.43761444.06608963 2.0321579-.03058625zm-38.27601623 3.24072266c.407547.88205338 1.52896118 1.71772385 2.3905182 2.44854355.3253479.27603912.70003509.69574737 1.19382476.86217499.3679123.1239891.91227722.10356521 1.389534.08565902.158638-.00595474.30986022-.0116272.4447174-.0116272h107.10365296c.14297485 0 .29862976.0052414.45983886.01066972.46928406.01580047.98571778.03318786 1.37442017-.07246018.56607056-.15360641.96496582-.57821274 1.32121277-.87441635.89234924-.74111557 1.86769867-1.57109833 2.37841034-2.44854355H11.31902313zm11.64421082 9.19745255c-1.23383332-.67226792-2.58409882-1.41057969-3.4586792-2.28391648 1.4355774-.26508713 3.26325226-.19390869 4.96468353-.12764358.72569275.02826309 1.42842102.05562973 2.06795502.05562973h91.42434692c.26408386 0 .54042053-.00738144.82174683-.0148964.7761383-.02073287 1.59042358-.04248428 2.29104614.08691025-.8888855 1.11394501-3.57972717 2.68367768-5.53387451 3.04994965-1.06944275.20040893-2.45062256.14382553-3.73109436.09136581-.5540619-.02270126-1.08927918-.04462814-1.57221985-.04462814H29.65000153c-.44463349 0-.9460373.021904-1.46791077.04470062-1.20259857.05253601-2.51387024.1098175-3.48952484-.08524704-.6436615-.12868881-1.2307129-.50043487-1.72933197-.77222442zm85.42929077 4.0534935h-25.2483368c-.1717224 0-.37965392-.01015091-.6023712-.02102662-.57655335-.02812957-1.25138856-.06105804-1.65383912.06445313-.59085083.1843605-.56677246 1.25127792-.63179016 1.61294174-.24429321 1.35887146-.4553833 2.73732758-.4553833 4.1049118 0 .08443451-.01474.19758607-.03118897.32398987-.04896545.376297-.11312866.86927033.14970398 1.07261658.2374878.18378449 1.0118866.08959198 1.52148438.02760315.12736511-.0154953.23817444-.02897644.31991577-.03559875 1.7739563-.14403534 3.56428528-.32385254 5.30329895-.58908844 5.71557617-.87168122 11.22525024-2.39971924 16.25578308-4.28509903 1.5094757-.56568528 4.1919098-1.30132676 5.07272339-2.27570343zm-76.32144928-.00000382c1.24731445 1.00952149 3.7806778 1.74710846 5.53388214 2.3765297 4.93196106 1.77058029 10.14199066 3.26686477 15.67932129 4.13177108 1.67146301.26113129 3.36322021.47458649 5.07272339.62128449.1440277.01235962.30474853.03092193.47351074.05041504.48928833.05652618 1.0461731.12085723 1.45977783.06430816.5260315-.0718689.4427185-.86833954.39260865-1.34732055-.01239014-.11843872-.02270508-.21704865-.02137757-.28082276.01454163-.70113373-.04977417-1.39794922-.11399841-2.09368515-.05749512-.62279129-.11486817-1.24420166-.11531067-1.86611175-.00003052-.0453949.0013733-.09917069.00294495-.15908814.01142883-.4362564.03137207-1.19767761-.43273926-1.42324447-.30966187-.15055085-.99311829-.116951-1.52674866-.09071732-.17800903.00875092-.33932495.01668167-.46452331.01668167H32.07107544zm31.35289764 2.16048431c-.6465454-.64512252-1.60551452-1.40467071-1.83886718-2.1604805h17.40867614c-.37019348.91726685-1.4454956 1.80039979-2.24467468 2.59257508-1.88279724 1.86622238-4.14915466 3.45000076-6.2867279 5.18515396-1.07725525-.3137741-1.91334534-1.0947876-2.6607666-1.65637207-1.65023804-1.23975372-3.0118103-2.59783173-4.37763978-3.96087647zM55.590065 67.33496094l.11529541-2.73661042 5.76445008.07201386v2.66459656l-.11851502.9547882-1.1496582.12545014h-3.22810364l-1.26495361-.11544037-.11851502-.96479797zm27.55412293 1.80039978v-4.46499634h4.2657013c.08157348 0 .18414306-.00443268.29765319-.00933075.41847229-.01807404.98565674-.0425644 1.19787598.12477875.22367858.17638397.1773529.55659485.14108276.8542099-.0118103.09693146-.0225525.18510437-.0225525.25461578v17.49988556c0 .06141663.00921632.14126587.01953126.23065949.03697205.32043457.08808899.76346588-.2203827.91944122-.22720336.1151352-.66256713.0970993-1.01280212.0825882-.10540771-.00436402-.203125-.00841523-.28511047-.00841523-.31097412 0-.70570373.02115631-1.13301086.04406739-1.05007935.05626678-2.29600525.12303161-2.98074341-.08727265-.19255066-.05937958-.22612-.21578216-.25854492-.36688995-.03834534-.17875672-.07511902-.35009003-.37162781-.34462738-.90870667.01799774-2.17054749.5955658-3.0957489.75400543-2.21343994.37879944-4.5738678.3881607-6.80206299.04824829-8.14494324-1.24227142-11.4438324-7.47669983-7.04820251-11.71411896 2.87243652-2.76887512 7.5824585-3.49760437 12.51568603-3.29876709 1.13374329.0457306 2.3916626.3550415 3.40979004.65721894.06948852.0206375.15861511.0561142.25823975.09575653.30262756.12042236.7017517.27924347.94041442.17783355.33659363-.14309692.26034546-.76683807.21064759-1.17346191-.01397705-.11417389-.02583313-.21115875-.02583313-.27542877zm51.88013458-4.42689514c-3.74804688.54026794-2.32537842 4.20011901 1.38348389 3.66864013 3.8206787-.54753875 2.49023437-4.22705078-1.38348389-3.66864013zm-88.3115158.03391265v5.97733307c-1.10943604-.21929168-2.09019471-.64180755-3.22810365-.8494339-2.86286163-.52225494-6.14433288-.41329956-8.87726593.34474183-8.28491973 2.2978897-9.7071228 9.29424285-2.86263275 12.90800476 3.08686829 1.63043976 7.27601624 2.11798858 11.16345215 1.55049896 1.15185547-.16779327 2.33091736-.72951508 3.45187378-.82457733.45148468-.0379181.45375824.31053161.45547485.57341003.00049591.07666016.00095368.14604187.0124817.19644165h4.38098144l1.47686767-.11522674.13719178-1.10904694v-17.4278717l-.1359253-1.18084717-1.47813415-.11544037-4.4962616.07201385zm89.46440887 3.28903962c3.0736084-.33428955 2.30578613-3.35954285-.69174195-3.04490662-3.1277771.32839203-2.45217895 3.38691711.69174195 3.04490662zm-1.38345337-.48040772h.46115112c.00067139-.78108215.27368164-.63109588.70239258-.3955841.31292724.17191314.70880127.38938903 1.14224243.32357025-.04336548-.05106354-.09902954-.10621643-.15734863-.16403199-.17590332-.17433929-.37619019-.3728485-.33724976-.55612945.02572632-.12335968.10824585-.23004913.18838501-.33364868.14242554-.18417359.27728272-.35853577.07217407-.59938813-.26400757-.31147003-1.67401123-.61336517-2.00256347-.19631958-.2602234.33104706-.184021.90686036-.11920166 1.39646912.02590942.1958847.0500183.37796784.0500183.52506256zm1.250885-1.19605255c.65945435-.1734085.02767945-.69862366-.5222473-.55776215-.59835816.15325165-.10147095.72181702.5222473.55776215zm-11.51161956 13.43876648h-4.49629212c-.08747863 0-.199234-.00505066-.32339477-.0106659-.44032288-.01990508-1.03674316-.04686736-1.2606659.11940766-.31529235.23504639-.05776977.77637482.09109498 1.08927918.01715088.03606414.03286743.0690918.0460968.0982666.56721496 1.24659729 1.86767578 2.19792938 3.63737488 2.85183715 3.99015808 1.47488404 11.19228363 1.4705658 14.87230682-.40977478 1.0456543-.53507995 1.8250122-1.20410919 2.2458191-2.00996398.3239746-.62005616.41735839-1.22427369.40582275-1.87242127-.06341553-3.30913544-5.94662476-3.94142914-10.01055909-4.35840607-1.40307617-.1447525-3.47020721-.24557495-4.45476532-.97797393-.8358612-.62294007-.0484314-1.33878327.97648621-1.62324524 1.42843628-.39608765 3.99591827-.42417145 5.30332184.16419983.84506225.38024139.6859436 1.15441894 1.33618164 1.4640808.27807617.1323166.83493042.10695649 1.27941894.08670808.14337159-.00653077.27505494-.01252747.38189698-.01252747h4.15042114c.29168701-1.85009003-2.39916992-3.62795258-4.95742798-4.25175476-4.66577148-1.13742066-12.11920929-.8464737-14.3615799 2.45135498-1.18862914 1.74782562-.41503906 4.01345062 2.14091492 5.12033844 1.7051239.73815918 4.20228577 1.04062652 6.22561646 1.23435211 1.55410003.14835358 4.91823578.06265259 5.46816253 1.27900696.4335022.95853424-1.45840454 1.65852356-2.7012329 1.82416534-2.65048981.35359192-5.7517624-.39392852-5.99501801-2.25626373zm-105.0284729 3.9608841c.0016098.0440979-.00091553.09480285-.00362396.1491394-.01045227.2093277-.02347565.47013855.18969726.60054779.437294.26771545 1.83190918.19624329 2.82575989.14530945.32150268-.01647187.60106659-.03079987.79271698-.03079987.0938034 0 .22275543.00591278.3706665.01269531.57653809.02644349 1.44113922.06609345 1.63500977-.17977905.14879608-.1888504.11691284-.47893524.08920288-.7310028-.01011658-.09205628-.0196762-.179039-.0196762-.25417329V70.5756836c0-.0415802.00515746-.09269715.01084136-.14897156.02248383-.22268677.05310822-.5261078-.19565582-.63838196-.19398499-.08753967-.54907227-.05562592-.8545456-.02816773-.12878417.0115738-.2487564.02235413-.34410858.02305603-1.03668975.0077057-2.07613372.0077057-3.11280822 0-.08992768-.00067138-.19723511-.0089569-.31147767-.01777649-.31504821-.0243225-.6828308-.05271148-.88419342.06329346-.23123169.13321686-.20970916.4788971-.19422912.727417.00387573.06223296.00737.11837768.00642395.16355895-2.5729065-.67248535-4.76812744-1.18141937-7.60908508-1.16773986C5.02054596 69.5851059-.4312439 73.66228485.02690125 77.84929657c.33294677 3.04267883 4.15433502 5.87794495 8.75576019 6.73781586 3.83670807.71728515 7.18009186.08714294 10.7218933-.83250428zm92.57722473-13.97110749l4.03512573-.07201385c.19857788.5204544.1672821 1.09186554.13693238 1.6461563-.01089478.19871522-.02165223.39521027-.02165223.58634187v10.29828643c0 .13285828.02571106.32092285.05480957.53382874.08335877.60993194.19458008 1.42372894-.19084167 1.7274704-.20324707.15997314-.710495.13903045-1.09300232.1232376-.10133362-.00418853-.19389343-.00801086-.26971436-.00801086-.31962585 0-.72602844.0218811-1.16612243.04557038-1.0792389.05809784-2.36091614.12709045-3.0626831-.08877564-.43464661-.13394928-.07032777-.710083-.63064576-.71871948-.53833008-.0087204-1.20272827.2101593-1.85357666.42458343-.47816467.15753174-.94902039.31266022-1.35722351.37335205-3.46720886.51563263-7.2620697.27078248-10.26074219-1.00894165-6.91539001-2.95050048-7.4082489-9.29006958-.72470093-12.51235199 1.0919037-.52636718 2.3934021-.97077179 3.722229-1.21253204 2.50627137-.45600891 5.08355714-.47559357 7.6090851-.0542984.42469787.07081604.87036132.21531677 1.31962585.3609848.64593505.20943451 1.29925537.42126465 1.90847778.42002869l.1844635-.83905792 1.66015625-.02513886zm-56.5071106.82713318c-.03398132-.29655457-.08540344-.74549103.28263855-.83346558.70469666-.16851043 1.82148743-.1046524 2.83280945-.04682159.51672364.02953339 1.0043335.05740356 1.39611817.05214691.0861969-.00115204.19447326-.0107727.31211853-.02121734.34399414-.03054047.76785278-.06817627.9546814.07753753.17156982.13382721.14747619.37870026.12785339.57804108-.00572205.05810547-.01106263.11234283-.01106263.15882873V83.4665451c0 .05521393.00831604.12706757.01766968.20780182.0367279.31738282.0893097.7717514-.2849121.89115906-.70283509.223732-1.996521.15506745-3.08039857.09754181-.433609-.02301788-.8336029-.04425049-1.14863586-.04425049-.0697174 0-.15315247.00317383-.24394226.00662232-.35664368.01355743-.82629395.03141021-1.02101135-.12184906-.17330933-.13671875-.14920044-.38544464-.12956238-.58799744.00570679-.05884552.0110321-.11379242.0110321-.16096497v-12.962883c0-.04663085-.00718689-.1094055-.01539612-.1810913zm20.07572937 2.36245728c4.71774292-.38312531 8.38279725 2.72868347 7.1566925 5.45233154-.74557494 1.65636444-3.36309814 2.78990173-6.00379943 3.00378418-3.68591309.2981491-7.19715881-1.9300232-7.1973877-4.156044-.00024414-2.15111543 2.61636353-4.0220871 6.04449463-4.30007172zm-29.2014923 5.38031768c1.15531158-2.68692016-2.45980835-5.75839996-7.11460877-5.38031768-3.43896484.27942657-6.21570587 2.02436828-6.31104279 4.22805786-.09892272 2.2879486 3.66965485 4.50676727 7.34864808 4.22806549 2.73937988-.20741272 5.33627319-1.35317993 6.07700347-3.07580567zm-34.4381485-5.38031768c4.30328369-.33055115 8.18506622 2.3167572 7.44029998 4.9482193-.54462432 1.92498779-3.27986145 3.26376342-6.28740692 3.50790405-3.96975708.32190704-7.52020263-2.13383484-7.25284576-4.51612854.22769928-2.02941132 2.91174316-3.69586182 6.0999527-3.93999481zm98.09151458 4.7321701c.41964722-2.45142364-2.99291992-5.04975891-7.12834167-4.7321701-3.1305542.23981475-5.8837738 1.7831192-6.2059021 3.7959671-.38887024 2.42910003 3.17645264 4.97126007 7.24351501 4.66015625 3.04478455-.23261261 5.75523377-1.77304077 6.09072876-3.72395325z"/>
</svg>
