<svg xmlns="http://www.w3.org/2000/svg" width="115.893" height="73.897" viewBox="0 0 115.893 73.897">
  <path fill="rgb(0,0,0)" fill-rule="evenodd" d="M32.89344788 25.8729477c0 11.69791793 6.73008728 21.05345153 17.79240417 24.73334121 5.14888 1.71278763 14.93035889.96303177 19.73701477-1.51285172 12.1863556-6.27713012 17.78640747-21.28968048 12.39204407-33.22048664C71.0834198-10.07380962 32.89344788-2.4237976 32.89344788 25.8729477zm34.782135 20.44695281c8.36923218-3.49603271 13.217865-10.99646377 13.217865-20.44695282 0-13.06665134-9.13949585-21.99999714-22.50772095-21.99999714-6.73564148 0-11.75091553 2.33013153-16.6233368 7.72330666-9.59308624 10.61839962-6.15790557 27.31273937 7.057724 34.29924297 4.45962525 2.35758972 13.72813416 2.56620789 18.85546876.42440033zM48.1545105 24.80041885c5.0832367 3.6593895 5.08866882 3.6864891 2.17018127 10.82252884-.73104858 1.78749848-1.14031982 3.25-.90945434 3.25.23086548 0 2.45062256-1.43149948 4.93281555-3.18111038l4.51309204-3.18111801 4.5584259 3.27359772 4.55841065 3.27361297-.68869019-2.84249115c-.37878418-1.56336975-1.10232544-3.96194076-1.60787964-5.3301506-.96549987-2.61301804-.771286-2.86879349 6.03953553-7.95370865l2.6725006-1.99526978-6.1415863-.03168106c-5.67578125-.0292778-6.18833923-.21794891-6.75798034-2.48757553-.33901978-1.35074234-1.11575318-3.71324253-1.72608948-5.24999904l-1.10968018-2.79410363-1.71315002 5-1.71315003 4.99999714-5.91918945.5-5.9191742.5 4.76106263 3.42747116zM29.89344788 67.3206482v-6.55226135l10.5.6045227.29771423 6.25c.2430725 5.10276795.01361084 6.25-1.25 6.25-1.20935059.00003815-1.54771423-1.20236968-1.54771423-5.49996185 0-5.20000457-.13635254-5.5-2.5-5.5-2.36363984 0-2.5.29999543-2.5 5.5 0 4.22222138-.34848023 5.5-1.5 5.5-1.18070984 0-1.5-1.3946991-1.5-6.5522995zm15.27229309-4.69773864c.27804565.96250152 1.10430908 3.9078598 1.8361206 6.5452423 1.16918946 4.2135849 1.62782288 4.75942994 3.78102112 4.5 1.94496155-.23434448 2.81193543-1.326622 4.20298767-5.2952423 2.17878723-6.2159729 2.27079773-7.5.53753662-7.5-.77157593 0-1.9235382 1.9769287-2.63717651 4.52575683-.69692993 2.4891739-1.61076355 4.73814392-2.03076172 4.99771118-.41999817.25958252-1.30316162-1.77700805-1.96257019-4.52575683-.78530884-3.27355194-1.72224426-4.99771118-2.71582031-4.99771118-.97055054 0-1.33482361.63025665-1.01133728 1.75zm30.7277069-1.74996186v6.5c0 5.11110688.32051087 6.5 1.5 6.5.93333436 0 1.5-.94444275 1.5-2.5 0-1.46900177.57388306-2.5 1.39158631-2.5.76538086 0 1.6739502 1.125 2.01905823 2.5.4205017 1.67542267 1.32122802 2.5 2.73085022 2.5 1.79560852 0 1.91323852-.2291336.80386352-1.56583404-1.03370666-1.24554444-1.0550537-2.24190521-.1043396-4.87104798 1.8495636-5.11489868.7577362-6.56311798-4.9480133-6.56311798h-4.89300537zm19 11c-2.19999694 0-4 .47466278-4 1.05478668 0 .63446045 1.89286805.93333436 4.75.75 4.7037964-.30182647 4.75-.33879852 4.75-3.80478668 0-3.21777343-.2620697-3.52526855-3.25-3.81336212-4.60595703-.44409942-4.39079284-3.18663788.25-3.18663788 1.92500306 0 3.5-.44999695 3.5-1 0-.55000305-2.01643371-1-4.48094177-1-3.95187378 0-4.55541992.29672241-5.11167907 2.51299286-.82180786 3.27436829 1.07954406 5.48700714 4.71505737 5.48700714 1.89115906 0 2.87756348.51418305 2.87756348 1.5 0 1.08332825-1.1111145 1.5-4 1.5zm12.66667176 1.33332825c-.3666687-.36666107-.66667175-3.2916565-.66667175-6.5v-5.83332825h4.5c2.4750061 0 4.5.44999695 4.5 1 0 .55000305-1.57499695 1-3.5 1-2.44444275 0-3.5.45237732-3.5 1.5s1.05555725 1.5 3.5 1.5c2.44444275 0 3.5.45237732 3.5 1.5s-1.05555725 1.5-3.5 1.5c-2.44444275 0-3.5.45237732-3.5 1.5s1.05555725 1.5 3.5 1.5c1.92500305 0 3.5.44999695 3.5 1 0 1.10443116-7.27137757 1.39527893-8.33332825.33332825zm-93.04129791-.86720276c-.89253998-2.32593536-.74507141-8.72907257.2366867-10.2771759.55034638-.86779785 2.489151-1.20588684 5.73469544-1l4.90324402.31105041v12l-5.12462616.2979126c-3.99906922.23248291-5.26197815-.05999756-5.75-1.3317871zm46.78342437.15677643c-.29063415-.75737763-.38900756-3.56987763-.21861267-6.25l.30981446-4.87289429 4.25-.30750274c2.51457214-.18193055 4.25.12432098 4.25.75 0 .58162689-1.3500061 1.05750274-3 1.05750274q-3 0-3 1.5t3 1.5 3 1.5q0 1.5-3 1.5t-3 1.5q0 1.5 3 1.5c1.6499939 0 3 .44999695 3 1 0 1.570076-7.9783783 1.2199173-8.59120179-.37710571zm-61 .00003815c-.29062652-.75737763-.38900756-3.56987763-.21860504-6.25l.30980683-4.87294007 4.75000763-.3047943c2.85712432-.18332673 4.75.11553954 4.75.75 0 .58013152-1.57500458 1.0547943-3.5 1.0547943-3.48148346 0-3.5.02379608-3.5 4.5 0 4.47618866.01849365 4.5 3.5 4.5 1.92499542 0 3.5.44999695 3.5 1 0 1.58361817-8.97420502 1.2308197-9.59120942-.37705993zm19.59120179-9.62294007c2.88889312 0 3 .16667176 3 4.5 0 4.33332825-.11110688 4.5-3 4.5-2.88889313 0-3-.16667175-3-4.5 0-4.33332824.11110687-4.5 3-4.5zm64 1.5c0-.91545105-.93255616-1.5-2.39300538-1.5-1.3161621 0-2.65203857.67500305-2.96862792 1.5-.43197632 1.12574005.1651001 1.5 2.39302063 1.5 1.97210693 0 2.96861267-.50351715 2.96861267-1.5z"/>
</svg>
