<svg xmlns="http://www.w3.org/2000/svg" width="40" height="40" viewBox="0 0 40 40">
  <path fill="rgb(255,255,255)" fill-rule="evenodd" d="M39.5146762 18.70684347L24.06351917 2.36873435C21.82248796 0 18.17751204 0 15.93648082 2.36873435L.48532381 18.70684347C0 19.22000082 0 20.05172627.4853238 20.56488362c.48454729.51315735 1.27193663.51315735 1.75648392 0l.98540146-1.0419147v16.70019295C3.2272092 38.30904389 4.82644821 40 6.79919242 40h6.21214474c.42887095 0 .7765181-.36758488.7765181-.82105177V27.02738208c0-2.26725235 1.7383134-4.10525884 3.88259046-4.10525884h4.65910856c2.14427706 0 3.88259046 1.83800649 3.88259046 4.10525884v12.15156615c0 .4534669.34764715.82105177.7765181.82105177h6.21214474c1.97274421 0 3.57198323-1.69095611 3.57198323-3.77683813V19.52296892l.98540146 1.0419147c.24227364.25616815.56064606.38507327.87824196.38507327.3175959 0 .63596832-.12890512.87824196-.38507327.48532381-.51315736.48532381-1.3448828 0-1.85804015z"/>
</svg>
