<svg xmlns="http://www.w3.org/2000/svg" width="140" height="74.973" viewBox="0 0 140 74.973">
  <path fill="rgb(0,0,0)" fill-rule="evenodd" d="M112.78923798.25912476c-1.42723084.66319084-1.7798462 1.91494083-.9175415 3.25709629 1.0549469 1.64200973 2.6315155 1.39353561 3.6480255-.57493973.4430542-.85797024.36611939-1.14366913-.56318664-2.09141064-.93725586-.9558754-1.2172699-1.03219795-2.16729736-.59074592zM13.23687744 74.6064453c-2.3499298-.41181183-6.1585083-2.12728119-8.16023254-3.67555237-.80724335-.62437439-1.63782501-1.0280075-1.84574127-.8969574-.20791626.13105012-.33003998.0749283-.27137757-.12471008.05865479-.199646-.4309616-1.28722381-1.08805084-2.41683197-1.8691864-3.21335601-2.31119537-6.6006546-1.4467926-11.08735656.75408172-3.91403962 2.74558258-9.11528778 4.9324417-12.88214875.71675874-1.23462295 1.43592835-2.67124176 1.59814454-3.19249344.16222382-.52124023.44496155-.94771194.62831116-.94771194.18335724 0 .5387268-.45964813.78971863-1.02143097.56439208-1.2632904 6.64291381-9.52635956 8.41734313-11.4424324l.06547547-.0707283c.51621246-.55770874.8404007-.90795136.94852447-.8506279.18270874.09686279-.25163269 1.3576126-1.41991424 4.74868393l-.08781433.25490951c-2.71731568 7.88820648-2.06558228 13.67916107 2.00692749 17.8324852 2.83501434 2.89128113 8.49349975 4.48487854 13.39060974 3.77121735 1.36593628-.19906617 4.42651367-.90042878 6.80128479-1.55858612 2.37475586-.65815735 4.9006424-1.35015107 5.61306763-1.5377655 1.74087524-.4584427 31.38160705-8.66052628 34.11024475-9.43886948l2.15888977-.61581803-5.2892456-.03553772-5.28926087-.03549957-.00938416-1.87146378c-.01135254-2.29290008-.4956665-12.84613418-.59507751-12.96795654-.03947449-.04833984-1.30284119 3.27075195-2.80749512 7.37576294l-2.73573303 7.46365738h-4.41030884c-2.42565918 0-4.51275635-.10448074-4.63795471-.23218155-.12522888-.1277008 1.36061096-4.53664398 3.30184936-9.7976532 1.9412384-5.2610054 4.75338745-12.9341011 6.24923706-17.05131054 1.49583435-4.11721801 3.10035706-8.52615928 3.5656128-9.7976532l.84587097-2.31180477h4.71852112c2.59518432 0 4.71852111.0511837 4.71852111.11373711 0 .06255817-.87026977 2.37854767-1.93389892 5.14664936-1.06362915 2.76810074-1.88780213 5.07988358-1.83148193 5.13729477.0562744.05740738 1.94657897-2.24909973 4.20066833-5.1255722l4.0983429-5.22995472 13.9247589-.02107048c7.65861512-.01159192 13.92311097.02846813 13.9210968.08901119-.00323485.06054592-.54299926 1.59624481-1.20222472 3.4126625l-1.19859314 3.30257988-4.60087586.1247158-4.60090637.12471772-1.321167 3.49391174c-.72663879 1.92165757-1.32116698 3.59939194-1.32116698 3.7282982 0 .12890624 1.84585571.234375 4.10185241.234375 3.00709534 0 4.09513855.1469097 4.0766449.5504322-.01391601.30273437-.57188415 2.03658771-1.24002075 3.8530054l-1.21478272 3.30257798-8.8338623.44034576-1.46420288 3.96309662c-.80529785 2.17970276-1.4656372 4.1117096-1.4673462 4.29335022-.00323486.18164444 2.24673463.33025742 4.99658204.33025742h4.99971008l-.28840637 1.33920288c-.27719116 1.28711319-.24073792 1.32850265.93719482 1.0640831.67410279-.1513176 1.50534058-.36585617 1.84719849-.4767456.9333191-.30272294 14.02288818-3.9494133 17.72883606-4.93916322 1.78108215-.47567749 6.4747467-1.77582168 10.43039703-2.88921737 7.46481324-2.10112381 10.17120362-2.53549576 8.98406983-1.44194413-.68789673.63370133-3.37179566 1.87042237-16.39202118 7.55343247-1.54360962.67372894-3.77804566 1.67190933-4.96542359 2.21816254-1.18737793.5462532-10.12512207 4.4671936-19.86166381 8.71319198-9.73654175 4.2460022-19.16003418 8.40540695-20.94110108 9.24311829-1.78108215.83771515-5.66705322 2.56558227-8.63549804 3.83970642-2.96846009 1.27413177-6.36868287 2.76103973-7.55609131 3.30426025-3.40304566 1.55686188-10.6223755 4.70717621-18.134552 7.91342926-3.79962159 1.6217041-7.4913025 3.215271-8.20372773 3.54125214-2.97181701 1.35980988-9.03150177 3.2911377-12.32577514 3.92845154-3.75192261.72585296-6.32883454.79075622-9.47877503.23872375zm6.87377167-39.24212646c-.68486786 1.78602218-1.14008331 3.42079544-1.01158905 3.63283539.1285019.21201706 2.23636627.38550567 4.68415832.38550567h4.45051575l1.40157318-3.85301208c.77085877-2.11915589 2.07393646-5.73547745 2.8957138-8.03627396l1.49414063-4.18326569-.23730468 3.74292374c-.13051606 2.0586052-.3656311 5.67493057-.52246857 8.03627396l-.28516388 4.29335403h4.9783783c4.3404007 0 5.01641082-.09875488 5.27516937-.770607.1632309-.42382812 2.43179321-6.61616134 5.04122925-13.76074218C53.0742569 11.71118259 56.51132965 2.37197971 57.06667328.96266079c.27810669-.70574188-.0908966-.77026463-4.38409424-.76669788L47.99478912.199893l-2.80654144 7.74266243c-1.54359436 4.25846481-2.90909576 7.80797577-3.03444672 7.88781357-.12535095.07983017-.09677124-1.67227555.06351471-3.89356614.16028595-2.22128677.3991089-5.77256012.53071595-7.8917141L42.9873352.19207955h-9.77989197l-2.68959809 7.37575818c-1.47927093 4.05667114-3.75576782 10.14992809-5.05888366 13.54057216-1.30311585 3.39064789-2.75939942 7.25466538-3.23619843 8.58670426-.47679901 1.33204269-1.42725372 3.88318252-2.11211395 5.6692047zm23.78227234 3.74819183c0-.16497803 1.29157257-3.78800583 2.8701477-8.05117035 1.57858277-4.26316833 4.775177-12.90323257 7.1035614-19.20014858L58.10004425.41225243l4.55436707-.12498284c2.50489807-.06874275 4.55436706.03684426 4.55436706.2346325 0 .1977911-3.17228699 8.9728384-7.04954529 19.50011253l-7.04953003 19.1404953-4.6084137.12498092c-2.53459167.06874466-4.60836791-.01000595-4.60836791-.17498016zm46.8500824-35.61785221c-.17399598.48437881-2.83158875 7.71212578-5.90574646 16.0616579-3.0741272 8.34953309-5.67510987 15.26843644-5.77993775 15.37533951-.10482788.10689927-.19255066-1.86974716-.19255066-4.3925476-.00109863-2.52280426-.11296081-6.76661682-.24861145-9.4306984l-.24665832-4.84378052 4.68513488-4.97953128c2.57681275-2.73874474 4.65377808-5.01752472 4.61553956-5.0639534-.0382843-.0464344.70863342-.87704277 1.65982055-1.84579659 1.10916138-1.1296711 1.61592102-1.44552326 1.41300965-.88068962zm7.08436584 33.5762186c.43487549-1.0293045.73277283-1.93933486.66197205-2.02228546-.07078553-.08295822-1.26031495.18643189-2.64343262.59863663-1.38308716.41220093-4.36054993 1.24018478-6.6165924 1.8399582-2.25599671.5997734-4.1828003 1.17253875-4.28175355 1.27281951-.09893799.10028076 2.5806427.18232727 5.9546051.18232727h6.13453675l.79066467-1.87145614zM22.19621277 49.47531892c-.95244599-.56575775-.97704315-2.31804657-.04586792-3.26770401 1.1736679-1.19696427 3.58222198-.22023773 3.60140991 1.46046066.02188873 1.91859055-1.80490112 2.84712982-3.555542 1.80724335z"/>
</svg>
