<svg xmlns="http://www.w3.org/2000/svg" width="159" height="79" viewBox="0 0 159 79">
  <path fill="rgb(0,0,0)" fill-rule="evenodd" d="M146.57684326 62.67331696l-.98635864.11128997c-.64324951.07257843-1.0612793-.08010101-1.20161438-.43888855-.11839295-.30259704-.60066223-.55017852-1.0717926-.55017852-.52276612 0-.85655213-.20524598-.85655213-.52667237 0-.28966522-.24162292-.52666473-.536911-.52666473-.33807374 0-.53691102-.33438873-.53691102-.90285492 0-.4965744-.24160766-1.13986206-.53691101-1.42952728-.35650635-.34970093-.53691101-1.22609711-.53691101-2.60825348 0-1.61621857.12002563-2.08158112.53691101-2.08158112.29530335 0 .53691101-.23699951.53691101-.52667236 0-.28966522-.24160766-.52666474-.53691101-.52666474-.29530334 0-.53691101-.14735412-.53691101-.32744598 0-.18009949-.33804321-.43269348-.7512207-.5613327-.4131775-.1286316-1.37962342-.85028076-2.14764405-1.60366059-.76802063-.75337982-1.55751037-1.36978149-1.75436401-1.36978149-.19688416 0-.35795593-.23699951-.35795593-.52666473 0-.28966523-.24160767-.52666474-.53691101-.52666474-.35792542 0-.53691101-.35111236-.53691101-1.0533371 0-.7022171-.17895508-1.05332946-.53691101-1.05332946-.29530335 0-.53691102-.23699951-.53691102-.52666474 0-.28967285-.24160766-.52667236-.536911-.52667236-.3276825 0-.53691102-.32743072-.53691102-.84020996 0-.46212006-.24160766-.93115234-.536911-1.04231262-.29530335-.11116028-.53691102-.3763504-.53691102-.5893097 0-.21296691-.24160766-.62421417-.53692627-.91387939-.29528808-.28966522-.53689575-.97247314-.53689575-1.51734924 0-.55671692-.23519897-1.07922364-.53692627-1.1927948-.29528809-.11115265-.53689575-.60205841-.53689575-1.0908966 0-.4888382-.16107178-.88880158-.35794068-.88880158-.19685363 0-.35792541-.47399903-.35792541-1.05332947 0-.7022171-.1789856-1.0533371-.53691101-1.0533371-.29530335 0-.53692627-.23854065-.53692627-.53009796 0-.29155731-.3139038-.79373932-.69754028-1.1159668-.38365174-.32221985-.61576844-.71567535-.51579285-.87433815.09997559-.1586647-.31097412-.28848266-.9131775-.28848266-.70370482 0-1.09495544-.1769333-1.09495544-.4951477 0-.36778642-.78256225-.55908967-3.04251098-.74374772-1.67337036-.1367302-3.04248047-.38791656-3.04248047-.5581894 0-.17026519-1.13256836-.30957793-2.51683044-.30957793-1.90698243 0-2.56672669-.12761689-2.72283936-.52666855-.13471985-.3443451-.69232178-.52666474-1.61073303-.52666474-.91844177 0-1.47602844-.18232345-1.6107483-.52666854-.1174469-.30020905-.65129089-.52666474-1.24157714-.52666474-.63749695 0-1.0011139-.16868973-.94602966-.43889236.05033874-.24684525-.3412323-.48750305-.89485169-.54998398-.56340027-.063591-.98434448-.32634735-.98434448-.61444473 0-.27684403-.24160767-.5033455-.53691101-.5033455-.29530335 0-.53691101-.14735793-.53691101-.3274498 0-.18009948-.33761597-.43256759-.75027466-.56103896-.41264343-.12847138-1.36024475-.85012055-2.10577393-1.60366059-.74549865-.75354003-1.53536987-1.3700714-1.7552948-1.3700714-.2198944 0-.39981079-.23700333-.39981079-.52666856 0-.28966522-.24160766-.52666473-.536911-.52666473-.29530335 0-.53691102.23699951-.53691102.52666473 0 .34776688-.35462952.52666855-1.04399109.52666855-.57420349 0-1.1110382.19749832-1.19296264.43888855-.10003663.29472733-.9622345.43888474-2.62490845.43888474-1.78985596 0-2.45114136-.12161637-2.3864441-.43888474.06080628-.29825592-.41847228-.43888855-1.49569702-.43888855-.9317932 0-1.80647277-.21708679-2.1220703-.52666855-.29530335-.28966522-.95614625-.52666473-1.46855164-.52666473-.51243592 0-1.02438355-.23699951-1.13769532-.52666855-.11331176-.28966522-.5914917-.52666473-1.06259155-.52666473-.52276611 0-.85656738.20524216-.85656738.52666473 0 .28966904-.24160767.52666855-.53691101.52666855-.29530335 0-.53691101.23699951-.53691101.52666473 0 .34783173-.35469056.52666855-1.0445404.52666855-1.50125123 0-2.17692567-.33318329-2.17692567-1.073452 0-.35596847-.27493286-.79813384-.61096191-.98259353-.57089234-.31339645-.5650177-.42935944.08950805-1.76897049.38523865-.78847885.90176392-1.43540573 1.14785767-1.43762588.2460785-.00210572.44741821-.24102402.44741821-.53069115 0-.35111046.35795594-.52666664 1.07382203-.52666664.59060668 0 1.07382202-.15800095 1.07382202-.35111046 0-.20345879 1.1665802-.35312843 2.7740631-.35590553 1.52571107-.00281716 3.1364441-.10006714 3.57939149-.21650696.9039154-.2376175 1.09570312-.83203316.26846313-.83203316-.29530334 0-.536911-.23700142-.536911-.52666664 0-.41798782-.51702882-.52666664-2.50558473-.52666664-1.9885559 0-2.50559997-.108675-2.50559997-.52666664 0-.28966332-.24665833-.52666474-.54814148-.52666474-.3014679 0-.64085388-.2369995-.75416565-.52666473-.11331177-.28966713-.5914917-.52666855-1.06260681-.52666855-.80825806 0-.85655213-.1187458-.85655213-2.10666466 0-1.63852119.11932373-2.10666656.53691101-2.10666656.29530335 0 .53691102-.17015457.53691102-.37812042 0-.47038079 1.96723938-2.43076802 2.43927001-2.43076802.19065857 0 .44874573-.39902114.5735321-.88670921.12480165-.48768997.54493714-1.19869041.9336548-1.57999897.83416747-.81825542 2.1385498-.91988659 2.1385498-.16662407 0 .28966618.24160767.52666664.53691101.52666664.29530334 0 .53691101-.23700046.53691101-.52666664C87.69555664.17555618 88.05348206 0 88.76937866 0q1.07382202 9.5e-7 1.07382202.52666664c0 .28966618.24160767.52666664.53691101.52666664.29530335 0 .53691102.23699951.53691102.52666569 0 .32142544.33380126.52666664.85656738.52666664.47109985 0 .94924927.23700047 1.06256103.52666664.14175415.36230755.7188263.52666664 1.84913636.52666664.98265075 0 1.5559082.13840008 1.42616272.34432125-.12115479.1922884.4226532.44464303 1.23167419.57154084.79672241.12497043 1.44859314.36502456 1.44859314.5334587 0 .16842747.24667358.30623532.54815674.30623532.30148315 0 .64085388.23699951.7541809.52666569.11331177.28966713.5587616.52666664.98989869.52666664.43191528 0 1.17808532.466259 1.66189575 1.0384636.48295593.57115554 1.24047852 1.04515647 1.68344116 1.05333137.47052002.00866508.80535889.23384475.80535889.54153824 0 .28966522.24160766.52666664.536911.52666664.29530335 0 .53691102.2369995.53691102.52666664 0 .28966522.17259216.52666473.3835144.52666473.2109375 0 .62513733.23700142.92044068.52666855.29528808.28966522.84753418.52666473 1.22720337.52666473.37968445 0 .69030761.23700142.69030761.52666474 0 .28966713.24160767.52666664.53692627.52666664.29528809 0 .53689576.24632835.53689576.5473919 0 .30106353.13235473.46715545.2940979.36909102.16174316-.09805679.5628662.1296196.89135742.50594903.32847595.37632942.8404541.68423461 1.1376648.68423461.29722594 0 .54042053.15799904.54042053.35111237 0 .19310951.24162292.35111046.536911.35111046.29530335 0 .53691102.23699951.53691102.52666664s.24162292.52666664.536911.52666664c.29530335 0 .53691102.23699951.53691102.52666473 0 .45837403.65382385.70259476 1.5212555.56824494.1476593-.02285767.26846313.19542312.26846313.48508835 0 .28966903.24665832.52666855.54812622.52666855.30148315 0 .64086914.2369995.7541809.52666473.11331177.28966904.43041993.52666855.70465088.52666855.27424622 0 .49862671.23699951.49862671.52666473 0 .28966904.24160767.52666855.53691101.52666855.29530335 0 .53691101.14735031.53691101.3274498 0 .18009567.34729004.43557358.77175904.56772232.424469.13215256 1.12750244.61680222 1.56230163 1.07699585.4475708.47372055 1.19975281.83671951 1.73381043.83671951.55389404 0 .94329834.1959343.94329834.47462464 0 .3409729.8026123.53533554 2.85025024.6902275 3.1924591.2414856 7.5300293-.0542488 7.5300293-.51340103 0-.16518783.22219849-.30034256.49377441-.30034256.76957703 0 3.44358826-2.72613144 3.44358826-3.5107193 0-.3904686.23851013-.70261001.53691101-.70261001.29530335 0 .53691101-.23699951.53691101-.52666855 0-.28966522.24160767-.52666473.53691101-.52666473.33406067 0 .53691101-.331604.53691101-.8777771s.20283509-.87778092.53691101-.87778092c.35794068 0 .53691101-.35110855.53691101-1.05333328 0-.70221901.17897034-1.05333138.53691101-1.05333138.37667847 0 .53691102-.37291717.53691102-1.2496128 0-.72723008.14674377-1.16064835.35099792-1.0368042.19647217.11909485.4552002-.42616272.58758545-1.23825455.13009644-.79807854.45443726-1.53306961.72073364-1.63331413.2663269-.10024453.39439392-.32481957.2846222-.49905968-.109787-.17424011.05221557-.41158867.3600006-.52743912.30776978-.11585235.55960084-.43073654.55960084-.69974518 0-.26900291.22412109-.4890995.49809265-.4890995.2739563 0 .59916687-.39499855.72270202-.877779.1235199-.48277665.38259888-.8777771.57571411-.8777771.19311524 0 .35113526-.23699952.35113526-.52666665 0-.28966617.22436523-.52666664.49859619-.52666664.27426147 0 .57797241-.20277977.67489624-.45062542.0969696-.2478466.83718872-.76134681 1.64494324-1.14111042.80775451-.3797655 1.4704895-.88798618 1.4727478-1.1293726.00294495-.30892944.74604797-.4388895 2.50968933-.4388895h2.50556946l.05204773 1.14110947c.1449585 3.17864323-.40371704 4.44419098-2.16433716 4.99233246-.41317749.1286335-.7512207.3812313-.7512207.56132889 0 .18009376-.31065369.3274498-.69033814.3274498-.37966919 0-.93191528.2369995-1.22720337.52666664-.2953186.28966522-.71455383.52666664-.93165588.52666664-.21710205 0-.48747253.2369995-.6007843.52666664-.11331177.28966522-.5914917.52666473-1.06259156.52666473-.5227356 0-.85653686.20524216-.85653686.52666855 0 .28966522-.24160767.52666473-.53691101.52666473-.29530335 0-.53691101.23700142-.53691101.52666474 0 .28966713-.24160767.52666664-.53691101.52666664-.29530335 0-.53691101.23700142-.53691101.52666664 0 .28966522-.24160767.52666664-.53691101.52666664-.29530335 0-.53691101.23699951-.53691101.52666664 0 .28966523-.16107178.52666664-.3579712.52666664-.19685363 0-.35792541.3209591-.35792541.71323967 0 .3922844-.24160767.80418778-.53691101.91534424-.30603028.11520386-.53691101.6388588-.53691101 1.2178688 0 .66883088-.18338013 1.01576997-.53691101 1.01576997-.46624756 0-.77246094 1.34556198-.57929993 2.54555511.0233612.14483261-.19921875.26333237-.4945221.26333237-.33587646 0-.536911.33282852-.536911.88879394 0 .48884201-.24160767.97974396-.53691102 1.09090042-.29530334.11115647-.536911.42219544-.536911.69120407 0 .26900101-.24162293.48910141-.53691102.48910141-.29530334 0-.536911.15800095-.536911.35110856 0 .45537185-1.32548524 1.75555801-1.78971864 1.75555801-.19685363 0-.35792541.23699951-.35792541.52666473 0 .28966904-.24162293.52666855-.53691101.52666855-.29530335 0-.53691101.23699951-.53691101.52666474 0 .28966903-.16108704.52666854-.35794068.52666854-.19688415 0-.35795593.23699952-.35795593.52666474 0 .28966522.24160767.52666855.53691101.52666855.33409119 0 .53691101.33160019.53691101.87777328 0 .48278046.13986206.8777771.31082154.8777771.17095947 0 .4021759.66810608.51382446 1.48467446.11164856.8165741.37446594 1.54074096.58401489 1.60926055.22299194.07289887.38105774 1.18665314.38105774 2.68476868 0 2.96707916.30995178 4.82515717.75946045 4.55265045.17288208-.10481262.31436157.99246216.31436157 2.43840027 0 1.6923294.16654968 2.79427338.467453 3.09294129.2571106.25518798.57809449.75048065.7133484 1.10066986.1352539.35018158.40811157.53835296.60635375.41816711.19828797-.12019348.3604889.02780914.3604889.3288498 0 .30106353.24160766.5473938.536911.5473938.29530335 0 .53691102.24828338.53691102.55174255 0 .30345916.24160766.7887497.536911 1.07841491.29530335.28966522.53691102.97621155.53691102 1.52566529 0 .5494461.20133972 1.06480407.44743347 1.1452484.32589722.10652924.44741821 1.33026887.44741821 4.50592042v4.35967255zM40.6194458 76.10634613l-10.3879776.09082031-.70222473-.79303741c-.38619995-.43617249-.66329956-.9159317-.6157837-1.06613922.04751588-.15020752-.15670013-.36460877-.4538269-.4764557-.47148895-.17747497-.54023742-2.38778686-.54023742-17.37022399 0-15.02537537.06697845-17.16687775.536911-17.16687775.29530335 0 .53691102-.15799713.53691102-.35111236 0-.56803131 8.63168335-.43135834 9.41181946.14902496.59913635.44572449.64069366 1.3972931.61894989 14.17277527-.01288605 7.5322342.08276367 14.58019257.21240234 15.66213226.21186829 1.76841736.32112885 1.96717072 1.08126068 1.96717072.51299286 0 .84558106-.2071457.84558106-.52666474 0-.28967285.24160766-.52667236.536911-.52667236.46891022 0 .53691102-1.90840912.53691102-15.06904602 0-8.28798676.09777069-15.31898499.21726227-15.62444305.18367767-.46956635.98571777-.5553894 5.19013214-.5553894h4.9728775v35.8133316l-.80493927.78999328c-.79317474.77844238-.9569931.79133606-11.19293976.8808136zm-30.08757782-.11544037c-.50724792.12487793-2.8623581.204216-5.2335968.17630768-3.90568543-.04597473-4.3280487-.11331177-4.48860931-.7156601-.09750367-.36569976-.31954194-.66490936-.49344635-.66490936C.13745117 74.78664398 0 67.15547943 0 57.23109436c0-15.37086487.06681824-17.55554962.53691101-17.55554962.29530335 0 .53691101-.23699951.53691101-.52667236 0-.45582581 1.37213135-.52666474 10.20131683-.52666474 6.5622635 0 10.20131684.12525177 10.20131684.35111237 0 .19311523.31066131.35111236.69033813.35111236.37967682 0 .93191529.23699951 1.22721863.52666474.29530335.28966522.70950317.52666473.92042542.52666473.26539611 0 .38349151 3.78420258.38349151 12.28888702 0 7.79940796-.128273 12.28888703-.35111236 12.28888703-.1931305 0-.44837952.38007355-.5672226.8446045-.29151153 1.13925933-.92166138 1.25170898-7.0458374 1.2572708l-5.2796402.00479126v8.7016449l-.92224884.22705841zm45.30697632.21937561l5.1006546-.09741974 5.10066223-.0974121.09315491-15.71221924c.05973816-10.07021332.22038269-15.71221924.44743347-15.71221924.19485474 0 .3542633-.23699951.3542633-.52666474 0-.35111236.35792542-.52666473 1.07382203-.52666473h1.07382202v32.2203064l.80535889.2117157c1.34274292.3529663 9.21662903.2461853 9.94244384-.13484192.64993287-.34118653.6789856-1.00773621.68972779-15.88777161.00616455-8.54239655.01396179-15.7291336.01396179-15.97052765.00149536-.25300598.45741272-.43888092 1.07644653-.43888092h1.07382202v32.2203064l.80534363.2115631c1.04914856.2760315 8.4408722.27481843 9.49151612-.00131988l.81141662-.21326446-.01879883-17.51304627c-.01177978-10.9988327-.14717102-17.51304626-.3639984-17.51304626-.18988038 0-.34523011-.23699952-.34523011-.52666474 0-.28966522-.24665833-.52666473-.54814148-.52666473-.30149841 0-.6408844-.23699951-.75419617-.52667236-.17906189-.45775605-2.3969574-.52666474-16.95265198-.52666474-14.55570983 0-16.77360534.0689087-16.95266723.52666474-.11331177.28967285-.38367462.52667236-.60076905.52667236-1.3911438 0-1.41744995.34854126-1.41744995 18.7689972l.0000534 17.76573943zm51.69315338-.23216247c-.64143372.24143982-8.94348144.21720886-9.90357971-.02889252-.5860138-.15039063-.62638855-1.29073334-.62638855-17.6905365 0-15.34798431.06681824-17.52981567.53691101-17.52981567.29530334 0 .53691101-.15799713.53691101-.35111237 0-.1931076.32214356-.66710663.71586609-1.05332947.68165588-.6686554 1.19314575-.70222473 10.69995117-.70222473 8.54450989 0 10.01374817.075943 10.19006348.52666474.11331177.28967285.45269775.52667236.75419616.52667236.30148316 0 .54814148.23699951.54814148.52666473 0 .28966522.16107178.52666474.35792542.52666474.2338562 0 .35795593 6.07228088.35795593 17.51460266v17.51460266l-.80535888.21170807c-1.04055787.27353668-8.4370575.2756195-9.47503663.00281524-.76080322-.20005035-.79927063-.3988037-.89486694-4.62268066l-.09986877-4.41364288-.9442749-.24720002c-.87104798-.22802734-.96095276-.14825439-1.15937806 1.02859498-.11830139.70168304-.21688843 2.79938507-.21902466 4.66156005-.0032196 2.76107788-.1084137 3.42508698-.57014465 3.59888459zM12.25948334 61.87003326l-.80536652-.12333679V43.49536896l1.34227753.10897827 1.34227753.10897064.0954361 8.99863434c.00380706.35888672.00757598.70422363.01120757 1.03649902.06654358 6.09358216.08511353 7.79436493-.60321045 8.15834809-.26648712.14091491-.63893127.08145904-1.1556549-.0010376-.07276154-.01161957-.1483841-.0236969-.22696686-.03572846zm98.26987457-9.11560821l.10458374 9.0411148h-1.04719543c-.7834015 0-1.10154725-.19900512-1.26303101-.79000091-.2841034-1.04016876-.2796936-15.65361786.00509644-16.69667053.170578-.62467194.43440246-.7845993 1.15844726-.70222473l.93756104.1066742.10453796 9.04110717zm22.62467957 25.7188797c0 .41799164-.51701355.52667236-2.50556946.52667236-1.98857117 0-2.50558472-.10868072-2.50558472-.52667236 0-.28966522-.24160767-.52666474-.53691101-.52666474-.29530334 0-.53691101-.2369995-.53691101-.52666473 0-.28966522-.24160767-.52666473-.53691101-.52666473-.42611694 0-.53691101-.507164-.53691101-2.45777893 0-1.95062256.11079407-2.45777893.536911-2.45777893.29530335 0 .53691102-.23699952.53691102-.52666474 0-.28966522.24160767-.52667236.53691101-.52667236.29530334 0 .53691101-.23699951.53691101-.52666474 0-.41439056.49838257-.52666473 2.33784485-.52666473 1.74789429 0 2.3898468.13290405 2.54388428.52666473.11332702.28966523.4303894.52666474.70465088.52666474.3153839 0 .49859619.3870697.49859619 1.0533371 0 .65541076.16905212 1.02017211.44743347.96555328.29624939-.05812073.4842987.47574615.55651855 1.58000183.08638 1.32040405-.00698852 1.66777802-.4474182 1.66777802-.35499574 0-.55653382.31785583-.55653382.8777771 0 .5461731-.20281983.8777771-.53691101.8777771-.29530335 0-.53691101.2369995-.53691101.52666473zm-.53691102-5.44221497c-.29530334 0-.536911-.2369995-.536911-.52666473 0-.49014282-.16096497-.57086945-1.33921815-.67163086-.88340759-.07553864-.60588073-.73548126.35490418-.84391022.70307922-.07936096.98431396.04603577.98431396.43888092 0 .30249787.24160767.5499878.53691101.5499878.29530335 0 .53691102.2369995.53691102.52667236 0 .28966522-.24160767.52666473-.53691102.52666473zm-5.54806518 1.60926056c0-1.22278595.13388061-1.60926056.55747986-1.60926056.43319702 0 .53295898.32659912.44743347 1.4649353-.15739441 2.0948639-1.00491333 2.21659089-1.00491333.14432526zm2.73410034-1.08259582c.11331177.28966522.43037415.52666473.70463562.52666473.27423096 0 .4985962-.23699951.4985962-.52666473 0-.28979493-.3169098-.52666474-.70463563-.52666474-.47929382 0-.63876343.16843415-.49859619.52666474zm2.27705383 2.8381424c0 .27357482.24160767.497406.53691101.497406.3340912 0 .53691102-.33159638.53691102-.87776947 0-.54618073.20285034-.87778473.536911-.87778473.29827881 0 .53691102-.31209564.53691102-.7022171 0-.9152298-1.7044983-.98845673-2.04327393-.08778382-.12710571.33795166-.40393066.74497986-.61515808.9045105-.2668457.20153046-.24749756.34442139.06338501.46814728.24606323.0979538.44740295.40192413.44740295.67549133zm-1.78286743 1.5507431c-1.271698 0-1.3851471-.53635407-.30737304-1.45326233.03381347-.02877045.06628418-.05648041.09747314-.08309174.36720276-.31338501.55651855-.47494507.68397522-.43567658.14653015.04514313.2112732.35577393.3704071 1.00647736.21798706.8912735.15301514.96555328-.84448242.96555328z"/>
</svg>
