<svg xmlns="http://www.w3.org/2000/svg" width="271" height="140" viewBox="0 0 271 140">
  <path fill="rgb(242,242,242)" fill-rule="evenodd" d="M2.40838242 71.9194336c4.7720108 7.87268829 10.08876419 11.60237121 19.53465652 13.70348358 11.44267273 2.5452652 33.2183075-.9105835 51.52676392-8.1774292 5.20746612-2.06690216 6.62486267-2.60733796 28.75265503-10.96304322 10.00816345-3.77919006 20.60505676-7.85520172 23.54862976-9.05781555 2.94358825-1.2026062 16.189682-6.27436066 29.43579101-11.27056885 27.54614258-10.38993835 92.09713745-35.12158584 100.08169556-38.3446579 2.943573-1.1882019 6.52301025-2.48802184 7.95431518-2.8884735 3.33978272-.9344101 9.95108033-4.6425705 7.03115845-3.94366456-1.1774292.28182602-7.92089844 1.84673691-14.98547363 3.47757721-12.36236572 2.85380555-20.32302857 4.74813843-36.39337158 8.66022492-4.12097168 1.00320434-15.68122864 3.75564575-25.6893921 6.11650848-10.00816345 2.3608818-22.53175353 5.34428406-27.83020019 6.62979126-12.31428528 2.98767853-19.09899902 4.60335541-36.92852783 8.79398346-7.94766235 1.86799622-18.7854004 4.42771149-24.08383179 5.68824768-5.29844665 1.26054383-16.1036377 3.79154968-24.0115509 5.62446594-27.740448 6.4297638-42.20440674 3.72815705-48.60253906-9.07807922-3.87522126-7.75646973-2.16751862-20.45705032 4.27534485-31.79681396C37.48396302 2.52446365 38.46987915.2371292 38.21543884.0102005c-.2544403-.22692871-4.01881408 3.35998917-8.3652954 7.97092056-4.34648133 4.61094666-8.17819215 8.59832764-8.5149231 8.86086274-2.21817017 1.72939682-10.29016877 12.58452987-13.33807373 17.93687057C1.95372772 45.39156342 0 51.60321045 0 60.2048645c0 6.21431732.47505188 8.5250473 2.40838242 11.7145691zm50.07876205 51.12921142c.04077148 10.51768494 1.06194305 13.45288086 5.43184662 15.61308289 3.172966 1.5684967 5.04904938 1.62327575 9.38851166.2740631 5.17404174-1.60865783 6.54956054-4.98539733 6.54956054-16.07841491 0-8.95761109-.14200592-9.59407044-2.14078521-9.59407044-2.00047303 0-2.14078522.63645935-2.14078522 9.7101593 0 10.8392334-1.16817474 13.20184327-6.52755737 13.20184327-4.9661789 0-6.3171463-2.90370178-6.3171463-13.5777588 0-8.69778442-.14597321-9.33424377-2.14079285-9.33424377-2.00401306 0-2.13833618.62516785-2.10285187 9.78533936zm30.2006607 16.31278992c-1.40678405-.26573182-2.40838622-1.1631012-2.40838622-2.1577301 0-1.45803834.7367401-1.63964844 5.12590026-1.26350403 3.7900238.32479858 5.48681641.05148315 6.5107422-1.04893494 2.31610107-2.48902893.9031372-4.79736328-4.54447938-7.42424011-2.85484314-1.37661743-5.61109924-3.09501648-6.125-3.81866455-3.1419754-4.42427063 1.66516113-10.39448548 8.35012818-10.37043763 4.65449523.01683045 7.34951782 1.1953888 6.27592468 2.74472046-.45185852.65208435-2.28468323.84272766-4.73796082.49284363-2.90348816-.41409302-4.3781128-.1653595-5.37573242.90673828-2.30604553 2.4781952-.88569641 4.7900238 4.55459595 7.4133606 5.73228454 2.7641449 7.05137634 4.11183166 7.07577514 7.2291565.03892518 4.98553466-7.39730835 8.67636108-14.70150756 7.29669189zm86.9540558-24.18035889c-8.81460572 4.85874939-8.18269349 19.1911621 1.03074645 23.37850952 5.88639832 2.6752472 14.29936218.0980835 17.4330597-5.34031677 1.82949829-3.17501831 1.68345642-10.8901825-.26994324-14.25921631-3.20010376-5.51927185-11.79714966-7.30493164-18.19386292-3.77897644zm37.7466278-1.73731995c-1.70960999-.2924652-1.87316895.81097412-1.87316895 12.63755799 0 12.38334655.09631348 12.95799255 2.17184449 12.95799255 2.08789062 0 2.16030883-.48866272 1.87319946-12.63754272-.26358032-11.15272522-.51876831-12.67520142-2.171875-12.95800782zM36.48300171 136.17530823c-3.31402588 0-4.96598816 1.23336792-3.83603668 2.86399841 1.21546173 1.75404358 6.7923355.98982239 9.84143829-1.3486023 2.96168518-2.27139282 3.00326538-2.45274352 3.00326538-13.10714721 0-9.52796936-.22122192-10.84265137-1.8731842-11.13206482-1.67845154-.29406738-1.87319184.61549377-1.87319184 8.74900818 0 11.37670898-.97832489 13.97480774-5.26229095 13.97480774zm98.61940002-10.55429077c-.16621399 6.5342102-.06930542 12.4216919.21536255 13.08331298.80110169 1.86193848 12.48532105 1.01768494 16.8210144-1.21542358 4.86911011-2.50784302 7.59184266-7.3722992 7.00608826-12.51715088-.93318176-8.19651794-6.80685424-12.02366638-17.67271423-11.5151062l-6.06752014.28399658-.30223084 11.8803711zm-26.99278259 2.49725341v-10.92103576l-4.0139618-.29627991c-2.70674132-.19981384-4.01397704-.76268005-4.01397704-1.728302 0-1.1774292 1.90292358-1.43200684 10.70391845-1.43200684 8.80101014 0 10.70391846.25457764 10.70391846 1.43200684 0 1.00219726-1.36532593 1.52009582-4.54916382 1.72555542l-4.54916381.29356384v10.9237671c0 10.28732299-.12472535 10.92376708-2.14079285 10.92376708-2.01602173 0-2.14077759-.6364441-2.14077759-10.92103577zm113.46160889 0v-10.92103576l-4.01397705-.29627991c-2.70672608-.19981384-4.01397705-.76268005-4.01397705-1.728302 0-1.1774292 1.90292358-1.43200684 10.70391845-1.43200684 8.80099488 0 10.70391846.25457764 10.70391846 1.43200684 0 1.00219726-1.36532593 1.52009582-4.54916382 1.72555542l-4.54916382.29356384v10.9237671c0 10.28732299-.12472534 10.92376708-2.14077758 10.92376708-2.01602173 0-2.1407776-.6364441-2.1407776-10.92103577zm-70.91545105 6.59049988c1.29118347-.80659485 2.90112304-3.11431885 3.57766723-5.12825012 2.51431275-7.48472595-2.93565368-13.97891235-11.1366272-13.27049255l-3.410614.2946167-.30503846 9.78533935-.30505371 9.7853241h4.6160431c2.53881835 0 5.67247008-.65994263 6.96362304-1.46653748zm32.30361938-1.0488739c2.4968872-2.8310852 2.99031067-9.2492218 1.00923157-13.12715149-1.71638489-3.35977173-6.48014832-4.95986938-10.42622376-3.50205994-3.75489807 1.38717652-5.4908142 4.54594422-5.4908142 9.99145508 0 5.82647705 3.11224365 9.15315247 8.56314086 9.15315247 3.18269349 0 4.63346863-.57518005 6.34466553-2.51539612zm54.00205994 1.2601471c-1.52963257.52352905-2.01022339 3.32380676-.76153565 4.43746948.32666016.29135132.52767945.47309875.76275635.54833984.38598633.12353516.86380005-.04000854 2.14038086-.47694397l.04208374-.0144043c.9312439-.31871032 1.69314575-1.09199523 1.69314575-1.71839904 0-1.74557495-2.2274475-3.34056092-3.87683105-2.77606201z"/>
</svg>
